<mxfile host="app.diagrams.net" modified="2023-04-01T14:06:45.064Z" agent="Mozilla/5.0 (Windows NT 10.0; Win64; x64) AppleWebKit/537.36 (KHTML, like Gecko) Chrome/111.0.0.0 Safari/537.36 Edg/111.0.1661.54" etag="47WHiPYnU80ndKffZ9EL" version="21.1.2" type="github">
  <diagram id="C5RBs43oDa-KdzZeNtuy" name="Page-1">
    <mxGraphModel dx="1374" dy="526" grid="1" gridSize="10" guides="1" tooltips="1" connect="1" arrows="1" fold="1" page="1" pageScale="1" pageWidth="827" pageHeight="1169" math="0" shadow="0">
      <root>
        <mxCell id="WIyWlLk6GJQsqaUBKTNV-0" />
        <mxCell id="WIyWlLk6GJQsqaUBKTNV-1" parent="WIyWlLk6GJQsqaUBKTNV-0" />
        <mxCell id="kUkME52XAe7fQZTd58IF-5" value="" style="edgeStyle=orthogonalEdgeStyle;rounded=0;orthogonalLoop=1;jettySize=auto;html=1;" edge="1" parent="WIyWlLk6GJQsqaUBKTNV-1" source="WIyWlLk6GJQsqaUBKTNV-3" target="WIyWlLk6GJQsqaUBKTNV-11">
          <mxGeometry relative="1" as="geometry" />
        </mxCell>
        <mxCell id="WIyWlLk6GJQsqaUBKTNV-3" value="définir le mot" style="rounded=1;whiteSpace=wrap;html=1;fontSize=12;glass=0;strokeWidth=1;shadow=0;" parent="WIyWlLk6GJQsqaUBKTNV-1" vertex="1">
          <mxGeometry x="160" y="80" width="120" height="40" as="geometry" />
        </mxCell>
        <mxCell id="kUkME52XAe7fQZTd58IF-4" style="edgeStyle=orthogonalEdgeStyle;rounded=0;orthogonalLoop=1;jettySize=auto;html=1;entryX=0.5;entryY=0;entryDx=0;entryDy=0;" edge="1" parent="WIyWlLk6GJQsqaUBKTNV-1" source="WIyWlLk6GJQsqaUBKTNV-11" target="kUkME52XAe7fQZTd58IF-0">
          <mxGeometry relative="1" as="geometry" />
        </mxCell>
        <mxCell id="WIyWlLk6GJQsqaUBKTNV-11" value="compter le nmbre de caractères" style="rounded=1;whiteSpace=wrap;html=1;fontSize=12;glass=0;strokeWidth=1;shadow=0;" parent="WIyWlLk6GJQsqaUBKTNV-1" vertex="1">
          <mxGeometry x="160" y="140" width="120" height="40" as="geometry" />
        </mxCell>
        <mxCell id="kUkME52XAe7fQZTd58IF-7" value="" style="edgeStyle=orthogonalEdgeStyle;rounded=0;orthogonalLoop=1;jettySize=auto;html=1;" edge="1" parent="WIyWlLk6GJQsqaUBKTNV-1" source="kUkME52XAe7fQZTd58IF-0" target="kUkME52XAe7fQZTd58IF-6">
          <mxGeometry relative="1" as="geometry" />
        </mxCell>
        <mxCell id="kUkME52XAe7fQZTd58IF-0" value="entrer le mot dans une liste et créer la liste qui affiche le dessin avec les différentes étapes" style="rounded=1;whiteSpace=wrap;html=1;" vertex="1" parent="WIyWlLk6GJQsqaUBKTNV-1">
          <mxGeometry x="160" y="200" width="120" height="70" as="geometry" />
        </mxCell>
        <mxCell id="kUkME52XAe7fQZTd58IF-9" value="" style="edgeStyle=orthogonalEdgeStyle;rounded=0;orthogonalLoop=1;jettySize=auto;html=1;" edge="1" parent="WIyWlLk6GJQsqaUBKTNV-1" source="kUkME52XAe7fQZTd58IF-6" target="kUkME52XAe7fQZTd58IF-8">
          <mxGeometry relative="1" as="geometry" />
        </mxCell>
        <mxCell id="kUkME52XAe7fQZTd58IF-6" value="démarrer la partie en affichant le mot crypté" style="whiteSpace=wrap;html=1;rounded=1;" vertex="1" parent="WIyWlLk6GJQsqaUBKTNV-1">
          <mxGeometry x="160" y="290" width="120" height="60" as="geometry" />
        </mxCell>
        <mxCell id="kUkME52XAe7fQZTd58IF-11" value="" style="edgeStyle=orthogonalEdgeStyle;rounded=0;orthogonalLoop=1;jettySize=auto;html=1;" edge="1" parent="WIyWlLk6GJQsqaUBKTNV-1" source="kUkME52XAe7fQZTd58IF-8" target="kUkME52XAe7fQZTd58IF-10">
          <mxGeometry relative="1" as="geometry" />
        </mxCell>
        <mxCell id="kUkME52XAe7fQZTd58IF-8" value="demander un caractère" style="whiteSpace=wrap;html=1;rounded=1;" vertex="1" parent="WIyWlLk6GJQsqaUBKTNV-1">
          <mxGeometry x="160" y="370" width="120" height="60" as="geometry" />
        </mxCell>
        <mxCell id="kUkME52XAe7fQZTd58IF-13" value="" style="edgeStyle=orthogonalEdgeStyle;rounded=0;orthogonalLoop=1;jettySize=auto;html=1;" edge="1" parent="WIyWlLk6GJQsqaUBKTNV-1" source="kUkME52XAe7fQZTd58IF-10" target="kUkME52XAe7fQZTd58IF-12">
          <mxGeometry relative="1" as="geometry" />
        </mxCell>
        <mxCell id="kUkME52XAe7fQZTd58IF-14" value="si correspondance" style="edgeLabel;html=1;align=center;verticalAlign=middle;resizable=0;points=[];" vertex="1" connectable="0" parent="kUkME52XAe7fQZTd58IF-13">
          <mxGeometry x="0.325" y="1" relative="1" as="geometry">
            <mxPoint x="-23" y="1" as="offset" />
          </mxGeometry>
        </mxCell>
        <mxCell id="kUkME52XAe7fQZTd58IF-16" value="" style="edgeStyle=orthogonalEdgeStyle;rounded=0;orthogonalLoop=1;jettySize=auto;html=1;" edge="1" parent="WIyWlLk6GJQsqaUBKTNV-1" source="kUkME52XAe7fQZTd58IF-10" target="kUkME52XAe7fQZTd58IF-15">
          <mxGeometry relative="1" as="geometry" />
        </mxCell>
        <mxCell id="kUkME52XAe7fQZTd58IF-17" value="si pas de correspondance" style="edgeLabel;html=1;align=center;verticalAlign=middle;resizable=0;points=[];" vertex="1" connectable="0" parent="kUkME52XAe7fQZTd58IF-16">
          <mxGeometry x="0.1512" relative="1" as="geometry">
            <mxPoint x="17" as="offset" />
          </mxGeometry>
        </mxCell>
        <mxCell id="kUkME52XAe7fQZTd58IF-19" value="" style="edgeStyle=orthogonalEdgeStyle;rounded=0;orthogonalLoop=1;jettySize=auto;html=1;" edge="1" parent="WIyWlLk6GJQsqaUBKTNV-1" source="kUkME52XAe7fQZTd58IF-10" target="kUkME52XAe7fQZTd58IF-18">
          <mxGeometry relative="1" as="geometry" />
        </mxCell>
        <mxCell id="kUkME52XAe7fQZTd58IF-10" value="comparer le caractère entré à chaque caractère de la liste" style="whiteSpace=wrap;html=1;rounded=1;" vertex="1" parent="WIyWlLk6GJQsqaUBKTNV-1">
          <mxGeometry x="160" y="460" width="120" height="60" as="geometry" />
        </mxCell>
        <mxCell id="kUkME52XAe7fQZTd58IF-23" style="edgeStyle=orthogonalEdgeStyle;rounded=0;orthogonalLoop=1;jettySize=auto;html=1;entryX=1;entryY=0.592;entryDx=0;entryDy=0;entryPerimeter=0;" edge="1" parent="WIyWlLk6GJQsqaUBKTNV-1" target="kUkME52XAe7fQZTd58IF-18">
          <mxGeometry relative="1" as="geometry">
            <mxPoint x="410" y="590" as="sourcePoint" />
          </mxGeometry>
        </mxCell>
        <mxCell id="kUkME52XAe7fQZTd58IF-26" value="" style="edgeStyle=orthogonalEdgeStyle;rounded=0;orthogonalLoop=1;jettySize=auto;html=1;" edge="1" parent="WIyWlLk6GJQsqaUBKTNV-1" source="kUkME52XAe7fQZTd58IF-12" target="kUkME52XAe7fQZTd58IF-25">
          <mxGeometry relative="1" as="geometry" />
        </mxCell>
        <mxCell id="kUkME52XAe7fQZTd58IF-27" value="si plus de&amp;nbsp;&lt;br&gt;caractère masqué" style="edgeLabel;html=1;align=center;verticalAlign=middle;resizable=0;points=[];" vertex="1" connectable="0" parent="kUkME52XAe7fQZTd58IF-26">
          <mxGeometry x="0.3826" relative="1" as="geometry">
            <mxPoint x="-16" as="offset" />
          </mxGeometry>
        </mxCell>
        <mxCell id="kUkME52XAe7fQZTd58IF-12" value="afficher &quot;oui&quot; et le caractère à la place des - dans le mot mystère" style="whiteSpace=wrap;html=1;rounded=1;" vertex="1" parent="WIyWlLk6GJQsqaUBKTNV-1">
          <mxGeometry x="420" y="460" width="120" height="60" as="geometry" />
        </mxCell>
        <mxCell id="kUkME52XAe7fQZTd58IF-21" value="" style="edgeStyle=orthogonalEdgeStyle;rounded=0;orthogonalLoop=1;jettySize=auto;html=1;" edge="1" parent="WIyWlLk6GJQsqaUBKTNV-1" source="kUkME52XAe7fQZTd58IF-15" target="kUkME52XAe7fQZTd58IF-20">
          <mxGeometry relative="1" as="geometry" />
        </mxCell>
        <mxCell id="kUkME52XAe7fQZTd58IF-22" value="si dessin complet" style="edgeLabel;html=1;align=center;verticalAlign=middle;resizable=0;points=[];" vertex="1" connectable="0" parent="kUkME52XAe7fQZTd58IF-21">
          <mxGeometry x="-0.1849" relative="1" as="geometry">
            <mxPoint as="offset" />
          </mxGeometry>
        </mxCell>
        <mxCell id="kUkME52XAe7fQZTd58IF-24" style="edgeStyle=orthogonalEdgeStyle;rounded=0;orthogonalLoop=1;jettySize=auto;html=1;exitX=0.939;exitY=0.991;exitDx=0;exitDy=0;entryX=-0.004;entryY=0.604;entryDx=0;entryDy=0;entryPerimeter=0;exitPerimeter=0;" edge="1" parent="WIyWlLk6GJQsqaUBKTNV-1" source="kUkME52XAe7fQZTd58IF-15" target="kUkME52XAe7fQZTd58IF-18">
          <mxGeometry relative="1" as="geometry" />
        </mxCell>
        <mxCell id="kUkME52XAe7fQZTd58IF-15" value="afficher &quot;non&quot;&amp;nbsp;" style="whiteSpace=wrap;html=1;rounded=1;" vertex="1" parent="WIyWlLk6GJQsqaUBKTNV-1">
          <mxGeometry x="-110" y="460" width="130" height="70" as="geometry" />
        </mxCell>
        <mxCell id="kUkME52XAe7fQZTd58IF-18" value="afficher l&#39;état du dessin et demander un nouveau caractère" style="whiteSpace=wrap;html=1;rounded=1;" vertex="1" parent="WIyWlLk6GJQsqaUBKTNV-1">
          <mxGeometry x="160" y="554.5" width="120" height="60" as="geometry" />
        </mxCell>
        <mxCell id="kUkME52XAe7fQZTd58IF-20" value="afficher game over avec le mot décrypté" style="whiteSpace=wrap;html=1;rounded=1;" vertex="1" parent="WIyWlLk6GJQsqaUBKTNV-1">
          <mxGeometry x="-110" y="600" width="120" height="60" as="geometry" />
        </mxCell>
        <mxCell id="kUkME52XAe7fQZTd58IF-25" value="afficher &quot;bravo&quot; et le mot décrypté" style="whiteSpace=wrap;html=1;rounded=1;" vertex="1" parent="WIyWlLk6GJQsqaUBKTNV-1">
          <mxGeometry x="660" y="460" width="120" height="60" as="geometry" />
        </mxCell>
        <mxCell id="kUkME52XAe7fQZTd58IF-31" value="fonctions" style="swimlane;fontStyle=0;childLayout=stackLayout;horizontal=1;startSize=30;horizontalStack=0;resizeParent=1;resizeParentMax=0;resizeLast=0;collapsible=1;marginBottom=0;whiteSpace=wrap;html=1;" vertex="1" parent="WIyWlLk6GJQsqaUBKTNV-1">
          <mxGeometry x="310" y="150" width="140" height="120" as="geometry" />
        </mxCell>
        <mxCell id="kUkME52XAe7fQZTd58IF-32" value="cryptage (liste)" style="text;strokeColor=none;fillColor=none;align=left;verticalAlign=middle;spacingLeft=4;spacingRight=4;overflow=hidden;points=[[0,0.5],[1,0.5]];portConstraint=eastwest;rotatable=0;whiteSpace=wrap;html=1;" vertex="1" parent="kUkME52XAe7fQZTd58IF-31">
          <mxGeometry y="30" width="140" height="30" as="geometry" />
        </mxCell>
        <mxCell id="kUkME52XAe7fQZTd58IF-33" value="comparaison_char (liste, char)" style="text;strokeColor=none;fillColor=none;align=left;verticalAlign=middle;spacingLeft=4;spacingRight=4;overflow=hidden;points=[[0,0.5],[1,0.5]];portConstraint=eastwest;rotatable=0;whiteSpace=wrap;html=1;" vertex="1" parent="kUkME52XAe7fQZTd58IF-31">
          <mxGeometry y="60" width="140" height="30" as="geometry" />
        </mxCell>
        <mxCell id="kUkME52XAe7fQZTd58IF-34" value="dessin() --&amp;gt; avec incrément" style="text;strokeColor=none;fillColor=none;align=left;verticalAlign=middle;spacingLeft=4;spacingRight=4;overflow=hidden;points=[[0,0.5],[1,0.5]];portConstraint=eastwest;rotatable=0;whiteSpace=wrap;html=1;" vertex="1" parent="kUkME52XAe7fQZTd58IF-31">
          <mxGeometry y="90" width="140" height="30" as="geometry" />
        </mxCell>
        <mxCell id="kUkME52XAe7fQZTd58IF-37" value="" style="edgeStyle=orthogonalEdgeStyle;rounded=0;orthogonalLoop=1;jettySize=auto;html=1;exitX=0.066;exitY=1.009;exitDx=0;exitDy=0;entryX=0.5;entryY=0;entryDx=0;entryDy=0;exitPerimeter=0;" edge="1" parent="WIyWlLk6GJQsqaUBKTNV-1" source="kUkME52XAe7fQZTd58IF-12" target="kUkME52XAe7fQZTd58IF-36">
          <mxGeometry relative="1" as="geometry">
            <mxPoint x="428" y="521" as="sourcePoint" />
            <mxPoint x="280" y="590" as="targetPoint" />
          </mxGeometry>
        </mxCell>
        <mxCell id="kUkME52XAe7fQZTd58IF-36" value="mettre à jour le mot dans la liste mot_crypté avec les nouveaux caractères" style="rounded=1;whiteSpace=wrap;html=1;" vertex="1" parent="WIyWlLk6GJQsqaUBKTNV-1">
          <mxGeometry x="414" y="570" width="120" height="60" as="geometry" />
        </mxCell>
        <mxCell id="kUkME52XAe7fQZTd58IF-38" value="listes" style="swimlane;fontStyle=0;childLayout=stackLayout;horizontal=1;startSize=30;horizontalStack=0;resizeParent=1;resizeParentMax=0;resizeLast=0;collapsible=1;marginBottom=0;whiteSpace=wrap;html=1;" vertex="1" parent="WIyWlLk6GJQsqaUBKTNV-1">
          <mxGeometry x="-10" y="140" width="140" height="90" as="geometry" />
        </mxCell>
        <mxCell id="kUkME52XAe7fQZTd58IF-39" value="mot" style="text;strokeColor=none;fillColor=none;align=left;verticalAlign=middle;spacingLeft=4;spacingRight=4;overflow=hidden;points=[[0,0.5],[1,0.5]];portConstraint=eastwest;rotatable=0;whiteSpace=wrap;html=1;" vertex="1" parent="kUkME52XAe7fQZTd58IF-38">
          <mxGeometry y="30" width="140" height="30" as="geometry" />
        </mxCell>
        <mxCell id="kUkME52XAe7fQZTd58IF-40" value="mot_crypté" style="text;strokeColor=none;fillColor=none;align=left;verticalAlign=middle;spacingLeft=4;spacingRight=4;overflow=hidden;points=[[0,0.5],[1,0.5]];portConstraint=eastwest;rotatable=0;whiteSpace=wrap;html=1;" vertex="1" parent="kUkME52XAe7fQZTd58IF-38">
          <mxGeometry y="60" width="140" height="30" as="geometry" />
        </mxCell>
      </root>
    </mxGraphModel>
  </diagram>
</mxfile>
